<?xml version="1.0" ?><!DOCTYPE svg  PUBLIC '-//W3C//DTD SVG 1.1//EN'  'http://www.w3.org/Graphics/SVG/1.1/DTD/svg11.dtd'><svg height="512px" style="enable-background:new 0 0 512 512;" version="1.1" viewBox="0 0 512 512" width="512px" xml:space="preserve" xmlns="http://www.w3.org/2000/svg" xmlns:xlink="http://www.w3.org/1999/xlink"><g id="_x33_7-soundcloud_x2C__sound_x2C__music"><g><g><path d="M420.039,241.049c-5.311,0-10.527,0.566-15.537,1.638     c-6.709-67.973-64.064-121.264-133.59-121.264c-8.23,0-14.91,6.701-14.91,14.952v239.246c0,8.253,6.68,14.957,14.91,14.957     h149.127c41.129,0,74.564-33.528,74.564-74.766C494.604,274.599,461.168,241.049,420.039,241.049L420.039,241.049z      M420.039,241.049" style="fill:#FF9800;"/><path d="M211.258,151.327c-8.227,0-14.906,6.698-14.906,14.953v209.341c0,8.253,6.68,14.957,14.906,14.957     c8.236,0,14.916-6.704,14.916-14.957V166.28C226.174,158.025,219.494,151.327,211.258,151.327L211.258,151.327z M211.258,151.327     " style="fill:#FF9800;"/><path d="M151.609,211.138c-8.23,0-14.91,6.7-14.91,14.955v149.528c0,8.253,6.68,14.957,14.91,14.957     c8.231,0,14.917-6.704,14.917-14.957V226.093C166.526,217.838,159.84,211.138,151.609,211.138L151.609,211.138z M151.609,211.138     " style="fill:#FF9800;"/><path d="M91.961,211.138c-8.231,0-14.916,6.7-14.916,14.955v149.528c0,8.253,6.685,14.957,14.916,14.957     s14.911-6.704,14.911-14.957V226.093C106.873,217.838,100.193,211.138,91.961,211.138L91.961,211.138z M91.961,211.138" style="fill:#FF9800;"/><path d="M32.313,256c-8.236,0-14.916,6.699-14.916,14.953v89.714c0,8.255,6.68,14.954,14.916,14.954     c8.231,0,14.911-6.699,14.911-14.954v-89.714C47.224,262.699,40.544,256,32.313,256L32.313,256z M32.313,256" style="fill:#FF9800;"/></g></g></g><g id="Layer_1"/></svg>